<mxfile host="app.diagrams.net" modified="2024-03-26T22:00:56.420Z" agent="Mozilla/5.0 (X11; Ubuntu; Linux x86_64; rv:124.0) Gecko/20100101 Firefox/124.0" etag="AUk7vEWuhq3aolmKWKMx" version="24.2.0" type="github">
  <diagram name="Página-1" id="BJ0FDYV7WeU5AChwLW6k">
    <mxGraphModel dx="1364" dy="795" grid="1" gridSize="10" guides="1" tooltips="1" connect="1" arrows="1" fold="1" page="1" pageScale="1" pageWidth="827" pageHeight="1169" math="0" shadow="0">
      <root>
        <mxCell id="0" />
        <mxCell id="1" parent="0" />
        <mxCell id="r8cadCt1gOrm9D4LQtw2-3" value="Blog" style="swimlane;childLayout=stackLayout;horizontal=1;startSize=50;horizontalStack=0;rounded=1;fontSize=14;fontStyle=0;strokeWidth=2;resizeParent=0;resizeLast=1;shadow=0;dashed=0;align=center;arcSize=4;whiteSpace=wrap;html=1;" vertex="1" parent="1">
          <mxGeometry x="190" y="160" width="160" height="120" as="geometry" />
        </mxCell>
        <mxCell id="r8cadCt1gOrm9D4LQtw2-4" value="&lt;div&gt;Titulo - INT&lt;/div&gt;&lt;div&gt;Data - date&lt;/div&gt;&lt;div&gt;conteudo - string&lt;br&gt;&lt;/div&gt;" style="align=left;strokeColor=none;fillColor=none;spacingLeft=4;fontSize=12;verticalAlign=top;resizable=0;rotatable=0;part=1;html=1;" vertex="1" parent="r8cadCt1gOrm9D4LQtw2-3">
          <mxGeometry y="50" width="160" height="70" as="geometry" />
        </mxCell>
        <mxCell id="r8cadCt1gOrm9D4LQtw2-7" value="Usúario" style="swimlane;childLayout=stackLayout;horizontal=1;startSize=50;horizontalStack=0;rounded=1;fontSize=14;fontStyle=0;strokeWidth=2;resizeParent=0;resizeLast=1;shadow=0;dashed=0;align=center;arcSize=4;whiteSpace=wrap;html=1;" vertex="1" parent="1">
          <mxGeometry x="190" y="360" width="160" height="120" as="geometry" />
        </mxCell>
        <mxCell id="r8cadCt1gOrm9D4LQtw2-8" value="&lt;div&gt;NomeUsuario - String&lt;/div&gt;&lt;div&gt;Senha - String&lt;/div&gt;&lt;div&gt;MinhaNota - Nota&lt;br&gt;&lt;/div&gt;" style="align=left;strokeColor=none;fillColor=none;spacingLeft=4;fontSize=12;verticalAlign=top;resizable=0;rotatable=0;part=1;html=1;" vertex="1" parent="r8cadCt1gOrm9D4LQtw2-7">
          <mxGeometry y="50" width="160" height="70" as="geometry" />
        </mxCell>
        <mxCell id="r8cadCt1gOrm9D4LQtw2-9" value="Conteúdo" style="swimlane;childLayout=stackLayout;horizontal=1;startSize=50;horizontalStack=0;rounded=1;fontSize=14;fontStyle=0;strokeWidth=2;resizeParent=0;resizeLast=1;shadow=0;dashed=0;align=center;arcSize=4;whiteSpace=wrap;html=1;" vertex="1" parent="1">
          <mxGeometry x="470" y="160" width="160" height="120" as="geometry" />
        </mxCell>
        <mxCell id="r8cadCt1gOrm9D4LQtw2-10" value="&lt;div&gt;Nota - string&lt;/div&gt;&lt;div&gt;Conteudo - string&lt;/div&gt;&lt;div&gt;dataCriação - date&lt;br&gt;&lt;/div&gt;" style="align=left;strokeColor=none;fillColor=none;spacingLeft=4;fontSize=12;verticalAlign=top;resizable=0;rotatable=0;part=1;html=1;" vertex="1" parent="r8cadCt1gOrm9D4LQtw2-9">
          <mxGeometry y="50" width="160" height="70" as="geometry" />
        </mxCell>
      </root>
    </mxGraphModel>
  </diagram>
</mxfile>
